<?xml version="1.0"?>
<svg xmlns="http://www.w3.org/2000/svg" xmlns:xlink="http://www.w3.org/1999/xlink" version="1.1" id="Layer_1" x="0px" y="0px" viewBox="0 0 512 512" style="enable-background:new 0 0 512 512;" xml:space="preserve" width="512px" height="512px" class=""><g><g>
	<g>
		<path d="M499.86,352.594c-4.374,0-7.918,3.544-7.918,7.918v62.812h-64.924c-4.374,0-7.918,3.544-7.918,7.918v64.924H174.185    v-75.004c13.927,2.834,28.2,4.274,42.755,4.274c52.886,0,102.426-19.43,140.459-52.853c0.328,0.041,0.661,0.07,1.001,0.07h63.34    c4.374,0,7.918-3.544,7.918-7.918c0-4.374-3.544-7.917-7.918-7.917h-48.217c5.275-5.738,10.251-11.783,14.9-18.121    c0.532,0.112,1.082,0.174,1.647,0.174h31.67c4.374,0,7.918-3.544,7.918-7.918s-3.544-7.918-7.918-7.918H398.88    c5.299-8.754,10.018-17.961,14.086-27.587c0.817-1.935,0.833-4.115,0.042-6.061c-0.79-1.947-2.321-3.497-4.256-4.316    l-180.258-76.073l85.865-140.381h15.602l-77.548,126.787c-1.203,1.967-1.49,4.361-0.783,6.556s2.334,3.974,4.459,4.87    l188.734,79.649c1.005,0.423,2.048,0.625,3.075,0.625c3.087,0,6.019-1.817,7.296-4.838c11.076-26.21,16.691-54.044,16.691-82.731    c0-37.057-9.676-73.546-27.984-105.524c-5.084-8.881-10.823-17.357-17.113-25.394h65.155v256c0,4.374,3.544,7.917,7.918,7.917    s7.918-3.544,7.918-7.917V60.701c0-4.374-3.544-7.918-7.918-7.918h-84.454c-0.708,0-1.391,0.101-2.045,0.277    c-12.786-13.453-27.3-25.265-43.184-35.002c-1.793-1.097-3.946-1.439-5.99-0.947c-2.043,0.491-3.806,1.775-4.904,3.567    l-19.636,32.105h-15.602l6.522-10.663c2.279-3.728,1.108-8.598-2.617-10.882C294.608,10.802,256.222,0,216.94,0    C99.647,0,4.222,95.425,4.222,212.718c0,65.58,29.574,126.504,81.137,167.148c3.434,2.708,8.413,2.119,11.119-1.316    c2.707-3.434,2.118-8.413-1.316-11.118c-47.73-37.624-75.105-94.015-75.105-154.714c0-108.562,88.322-196.883,196.882-196.883    c33.707,0,66.696,8.59,95.908,24.908L210.185,208.587c-1.203,1.967-1.49,4.361-0.783,6.556c0.706,2.195,2.334,3.974,4.459,4.87    l181.291,76.509C362.732,365.476,293.63,409.6,216.94,409.6c-31.695,0-61.954-7.299-89.934-21.693    c-3.889-2.002-8.663-0.469-10.663,3.418c-2.001,3.888-0.47,8.662,3.418,10.662c12.465,6.413,25.353,11.5,38.589,15.292v86.802    c0,4.374,3.545,7.917,7.918,7.917h260.75c2.836,0,4.824-1.544,6.69-3.409c1.633-1.633,71.636-71.52,72.398-72.495    c1.076-1.378,1.672-3.105,1.672-4.855v-70.73C507.778,356.138,504.234,352.594,499.86,352.594z M368.576,35.832    c54.927,36.687,87.473,97.304,87.473,163.705c0,23.89-4.204,47.136-12.508,69.216l-172.821-72.934L368.576,35.832z     M434.936,484.969v-45.81h45.81L434.936,484.969z" data-original="#000000" class="active-path" data-old_color="#FFF8F8" fill="#FFFAFA"/>
	</g>
</g><g>
	<g>
		<path d="M394.292,424.379H271.835c-4.374,0-7.918,3.544-7.918,7.918s3.544,7.918,7.918,7.918h122.458    c4.374,0,7.918-3.544,7.918-7.918S398.666,424.379,394.292,424.379z" data-original="#000000" class="active-path" data-old_color="#FFF8F8" fill="#FFFAFA"/>
	</g>
</g><g>
	<g>
		<path d="M394.292,458.161H271.835c-4.374,0-7.918,3.544-7.918,7.918s3.544,7.918,7.918,7.918h122.458    c4.374,0,7.918-3.544,7.918-7.918S398.666,458.161,394.292,458.161z" data-original="#000000" class="active-path" data-old_color="#FFF8F8" fill="#FFFAFA"/>
	</g>
</g><g>
	<g>
		<path d="M354.177,116.124c-13.679,0-24.808,11.129-24.808,24.808s11.129,24.808,24.808,24.808s24.808-11.129,24.808-24.808    S367.856,116.124,354.177,116.124z M354.177,149.905c-4.948,0-8.973-4.025-8.973-8.973c0-4.948,4.025-8.973,8.973-8.973    s8.973,4.025,8.973,8.973C363.15,145.88,359.125,149.905,354.177,149.905z" data-original="#000000" class="active-path" data-old_color="#FFF8F8" fill="#FFFAFA"/>
	</g>
</g><g>
	<g>
		<path d="M410.909,172.855c-13.679,0-24.808,11.129-24.808,24.808s11.129,24.808,24.808,24.808s24.808-11.129,24.808-24.808    S424.588,172.855,410.909,172.855z M410.909,206.637c-4.948,0-8.973-4.025-8.973-8.973s4.025-8.973,8.973-8.973    s8.973,4.025,8.973,8.973S415.856,206.637,410.909,206.637z" data-original="#000000" class="active-path" data-old_color="#FFF8F8" fill="#FFFAFA"/>
	</g>
</g><g>
	<g>
		<path d="M430.258,121.584c-3.093-3.091-8.105-3.091-11.197,0l-82.342,82.342c-3.093,3.093-3.093,8.105-0.001,11.198    c1.547,1.546,3.573,2.318,5.599,2.318c2.026,0,4.053-0.773,5.599-2.318l82.342-82.342    C433.35,129.688,433.35,124.676,430.258,121.584z" data-original="#000000" class="active-path" data-old_color="#FFF8F8" fill="#FFFAFA"/>
	</g>
</g><g>
	<g>
		<path d="M138.82,182.631c4.373,0,7.918-3.544,7.918-7.918c0-4.374-3.545-7.917-7.918-7.917h-21.641v-8.973    c0-4.374-3.545-7.918-7.918-7.918c-4.373,0-7.917,3.544-7.917,7.918v8.973h-6.862c-10.186,0-18.474,8.288-18.474,18.474v16.891    c0,10.186,8.288,18.474,18.474,18.474h6.862v22.169H79.703c-4.373,0-7.918,3.544-7.918,7.918c0,4.374,3.545,7.917,7.918,7.917    h21.641v8.973c0,4.374,3.545,7.918,7.917,7.918c4.373,0,7.918-3.544,7.918-7.918v-8.973h6.862    c10.186,0,18.474-8.288,18.474-18.474v-16.891c0-10.186-8.288-18.474-18.474-18.474h-6.862v-22.169H138.82z M101.344,204.8h-6.862    c-1.455,0-2.639-1.183-2.639-2.639V185.27c0-1.456,1.184-2.639,2.639-2.639h6.862V204.8z M124.041,220.635    c1.455,0,2.639,1.183,2.639,2.639v16.891c0,1.456-1.184,2.639-2.639,2.639h-6.862v-22.169H124.041z" data-original="#000000" class="active-path" data-old_color="#FFF8F8" fill="#FFFAFA"/>
	</g>
</g><g>
	<g>
		<path d="M240.164,307.2c4.373,0,7.917-3.544,7.917-7.918s-3.545-7.918-7.917-7.918h-21.641v-8.973    c0-4.374-3.545-7.918-7.918-7.918c-4.373,0-7.918,3.544-7.918,7.918v8.973h-6.862c-10.186,0-18.474,8.288-18.474,18.474v16.891    c0,10.186,8.288,18.474,18.474,18.474h6.862v22.169h-21.641c-4.373,0-7.918,3.544-7.918,7.917c0,4.374,3.545,7.918,7.918,7.918    h21.641v8.973c0,4.374,3.545,7.918,7.918,7.918c4.373,0,7.918-3.544,7.918-7.918v-8.973h6.862    c10.186,0,18.474-8.288,18.474-18.474v-16.891c0-10.186-8.288-18.474-18.474-18.474h-6.862V307.2H240.164z M202.688,329.369    h-6.862c-1.455,0-2.639-1.183-2.639-2.639v-16.891c0-1.456,1.184-2.639,2.639-2.639h6.862V329.369z M225.385,345.204    c1.455,0,2.639,1.183,2.639,2.639v16.891c0,1.456-1.185,2.639-2.639,2.639h-6.862v-22.169H225.385z" data-original="#000000" class="active-path" data-old_color="#FFF8F8" fill="#FFFAFA"/>
	</g>
</g><g>
	<g>
		<path d="M240.164,66.507c4.373,0,7.917-3.544,7.917-7.917c0-4.374-3.545-7.918-7.917-7.918h-21.641v-8.973    c0-4.374-3.545-7.918-7.918-7.918c-4.373,0-7.918,3.544-7.918,7.918v8.973h-6.862c-10.186,0-18.474,8.288-18.474,18.474v16.891    c0,10.186,8.288,18.474,18.474,18.474h6.862v22.169h-21.641c-4.373,0-7.918,3.544-7.918,7.918s3.545,7.917,7.918,7.917h21.641    v8.973c0,4.374,3.545,7.918,7.918,7.918c4.373,0,7.918-3.544,7.918-7.918v-8.973h6.862c10.186,0,18.474-8.288,18.474-18.474    v-16.891c0-10.186-8.288-18.474-18.474-18.474h-6.862V66.507H240.164z M202.688,88.676h-6.862c-1.455,0-2.639-1.183-2.639-2.639    V69.146c0-1.456,1.184-2.639,2.639-2.639h6.862V88.676z M225.385,104.511c1.455,0,2.639,1.183,2.639,2.639v16.891    c0,1.456-1.185,2.639-2.639,2.639h-6.862v-22.169H225.385z" data-original="#000000" class="active-path" data-old_color="#FFF8F8" fill="#FFFAFA"/>
	</g>
</g></g> </svg>
