<?xml version="1.0"?>
<svg xmlns="http://www.w3.org/2000/svg" xmlns:xlink="http://www.w3.org/1999/xlink" version="1.1" id="Layer_1" x="0px" y="0px" viewBox="0 0 512 512" style="enable-background:new 0 0 512 512;" xml:space="preserve" width="512px" height="512px" class=""><g><g>
	<g>
		<path d="M488.45,96.197H359.55l14.788-54.223l70.54,12.826c4.028,0.735,8.007-2.027,8.738-6.049l4.301-23.659    c0.742-4.083-1.966-7.994-6.049-8.738L363.701,0.324c-10.05-1.826-19.659,4.223-22.347,14.082l-22.307,81.792H183.863    c-4.15,0-7.514,3.364-7.514,7.515v40.077c0,4.151,3.365,7.515,7.514,7.515h17.016l6.412,96.194    c0.276,4.141,3.847,7.284,7.997,6.997c4.141-0.276,7.274-3.857,6.997-7.997l-1.003-15.039h229.743L437.6,432.848h-69.05    c-4.15,0-7.515,3.364-7.515,7.515s3.365,7.514,7.515,7.514h68.048l-3.273,49.095H344.17c-4.15,0-7.515,3.363-7.515,7.514    S340.02,512,344.17,512h96.186c3.957,0,7.235-3.068,7.497-7.015l23.578-353.681h17.016c4.15,0,7.515-3.364,7.515-7.515v-40.077    C495.965,99.561,492.6,96.197,488.45,96.197z M355.853,18.359c0.621-2.274,2.84-3.674,5.156-3.249l80.777,14.686l-1.613,8.872    l-69.927-12.714c-3.838-0.696-7.569,1.653-8.595,5.415l-17.68,64.826h-9.346L355.853,18.359z M452.03,216.429H220.283    l-4.341-65.126h240.431L452.03,216.429z M480.936,136.274H191.377v-25.048h289.559V136.274z" data-original="#000000" class="active-path" data-old_color="#FCF6F6" fill="#FFFBFB"/>
	</g>
</g><g>
	<g>
		<path d="M264.017,264.522H103.708c-48.341,0-87.669,39.328-87.669,87.669v88.17c0,39.501,32.137,71.638,71.638,71.638h192.371    c39.501,0,71.638-32.137,71.638-71.638v-88.17C351.686,303.85,312.359,264.522,264.017,264.522z M56.116,415.814v17.033H31.068    v-17.033H56.116z M31.068,400.785v-17.033h25.048v17.033H31.068z M336.657,432.847h-64.625c-4.15,0-7.514,3.363-7.514,7.514    s3.364,7.515,7.514,7.515h64.111c-3.689,27.672-27.43,49.095-56.095,49.095H87.677c-28.665,0-52.406-21.422-56.095-49.095h24.534    v0.501c0,12.983,10.562,23.545,23.545,23.545c11.038,0,20.327-7.636,22.862-17.903c2.827,1.204,5.937,1.872,9.2,1.872    c3.262,0,6.372-0.667,9.2-1.872c2.535,10.267,11.824,17.903,22.862,17.903c12.983,0,23.545-10.562,23.545-23.545v-0.501h72.974    c4.15,0,7.515-3.364,7.515-7.515s-3.365-7.514-7.515-7.514h-72.974v-17.033c0,0,64.041,0.613,64.558,0.501l19.605,14.027    c2.642,1.982,6.375,1.982,9.017,0l19.37-14.528h56.777V432.847z M127.754,424.831c-4.15,0-7.514,3.364-7.514,7.515    c0,4.696-3.82,8.516-8.516,8.516c-4.696,0-8.516-3.82-8.516-8.516c0-4.151-3.365-7.515-7.514-7.515    c-4.15,0-7.515,3.364-7.515,7.515v16.031c0,4.696-3.82,8.516-8.516,8.516s-8.516-3.82-8.516-8.516v-64.625h81.157v64.625    c0,4.696-3.82,8.516-8.516,8.516s-8.516-3.82-8.516-8.516v-16.031C135.269,428.195,131.904,424.831,127.754,424.831z     M167.331,400.785v-17.033h22.043l22.711,17.033H167.331z M214.421,383.752h83.16l-41.58,31.185L214.421,383.752z     M336.657,400.785h-36.738l22.711-17.033h14.027V400.785z M336.657,368.723H31.068v-16.532h0c0-40.054,32.586-72.64,72.64-72.64    h160.309c40.054,0,72.64,32.586,72.64,72.64V368.723z" data-original="#000000" class="active-path" data-old_color="#FCF6F6" fill="#FFFBFB"/>
	</g>
</g><g>
	<g>
		<path d="M184.864,312.615h-1.002c-4.15,0-7.514,3.364-7.514,7.515s3.365,7.514,7.514,7.514h1.002c4.15,0,7.515-3.363,7.515-7.514    S189.014,312.615,184.864,312.615z" data-original="#000000" class="active-path" data-old_color="#FCF6F6" fill="#FFFBFB"/>
	</g>
</g><g>
	<g>
		<path d="M232.957,312.615h-1.002c-4.15,0-7.515,3.364-7.515,7.515s3.365,7.514,7.515,7.514h1.002c4.15,0,7.514-3.363,7.514-7.514    S237.107,312.615,232.957,312.615z" data-original="#000000" class="active-path" data-old_color="#FCF6F6" fill="#FFFBFB"/>
	</g>
</g><g>
	<g>
		<path d="M136.772,312.615h-1.002c-4.15,0-7.515,3.364-7.515,7.515s3.365,7.514,7.515,7.514h1.002c4.15,0,7.515-3.363,7.515-7.514    S140.922,312.615,136.772,312.615z" data-original="#000000" class="active-path" data-old_color="#FCF6F6" fill="#FFFBFB"/>
	</g>
</g><g>
	<g>
		<path d="M208.911,288.568h-1.002c-4.15,0-7.515,3.363-7.515,7.515c0,4.151,3.365,7.514,7.515,7.514h1.002    c4.15,0,7.515-3.363,7.515-7.514C216.425,291.932,213.061,288.568,208.911,288.568z" data-original="#000000" class="active-path" data-old_color="#FCF6F6" fill="#FFFBFB"/>
	</g>
</g><g>
	<g>
		<path d="M159.816,288.568h-1.002c-4.15,0-7.514,3.363-7.514,7.515c0,4.151,3.365,7.514,7.514,7.514h1.002    c4.15,0,7.515-3.363,7.515-7.514C167.331,291.932,163.966,288.568,159.816,288.568z" data-original="#000000" class="active-path" data-old_color="#FCF6F6" fill="#FFFBFB"/>
	</g>
</g></g> </svg>
